<svg xmlns="http://www.w3.org/2000/svg" width="28" height="37.344" viewBox="0 0 28 37.344">
  <defs>
    <style>
      .cls-1 {
        fill: #fed136;
        fill-rule: evenodd;
      }
    </style>
  </defs>
  <path id="Icon-Locked" class="cls-1" d="M1029.68,350.633c5.16,0,9.34,3.656,9.34,8.166v19.833c0,4.51-4.18,8.166-9.34,8.166s-9.33-3.656-9.33-8.166V358.8C1020.35,354.289,1024.53,350.633,1029.68,350.633Zm0,4.666c2.58,0,4.67,1.568,4.67,3.5v8.166c0,1.934-2.09,3.5-4.67,3.5s-4.66-1.566-4.66-3.5V358.8C1025.02,356.867,1027.11,355.3,1029.68,355.3Zm-10.49,12.833h20.99a3.5,3.5,0,0,1,3.5,3.5v12.833a3.5,3.5,0,0,1-3.5,3.5h-20.99a3.5,3.5,0,0,1-3.5-3.5V371.632A3.5,3.5,0,0,1,1019.19,368.132Zm10.49,5.833a2.338,2.338,0,0,1,2.34,2.333v5.833a2.335,2.335,0,0,1-4.67,0V376.3A2.336,2.336,0,0,1,1029.68,373.965Zm0-2.333a4.667,4.667,0,1,1-4.66,4.666A4.668,4.668,0,0,1,1029.68,371.632Z" transform="translate(-1015.69 -350.625)"/>
</svg>
