<svg xmlns="http://www.w3.org/2000/svg" width="40.375" height="33.625" viewBox="0 0 40.375 33.625">
  <defs>
    <style>
      .cls-1 {
        fill: #fed136;
        fill-rule: evenodd;
      }
    </style>
  </defs>
  <path id="Icon-Laptop" class="cls-1" d="M687.356,354.9h26.908a4.036,4.036,0,0,1,4.036,4.036v17.49a4.036,4.036,0,0,1-4.036,4.036H687.356a4.036,4.036,0,0,1-4.036-4.036v-17.49A4.036,4.036,0,0,1,687.356,354.9Zm-4.036,22.871h4.036v2.691H683.32v-2.691Zm30.944,0H718.3v2.691h-4.036v-2.691Zm-26.908-18.835h26.908v24.216H687.356V358.936Zm-4.036,24.216H718.3a2.691,2.691,0,0,1,2.691,2.691c0,1.486-2.551,2.691-4.037,2.691H684.666c-1.486,0-4.036-1.2-4.036-2.691A2.69,2.69,0,0,1,683.32,383.152Zm13.454,2.691h8.072a0.841,0.841,0,1,1,0,1.345h-8.072A0.841,0.841,0,1,1,696.774,385.843Zm-5-15.159,1.894-1.9a1.336,1.336,0,0,1,1.894,0l4.735,4.757a1.349,1.349,0,0,1,0,1.9l-1.894,1.9a1.336,1.336,0,0,1-1.894,0l-4.735-4.756A1.35,1.35,0,0,1,691.777,370.684Zm16.167-7.447,1.9,1.9a1.35,1.35,0,0,1,0,1.9l-10.418,10.464a1.335,1.335,0,0,1-1.9,0l-1.894-1.9a1.35,1.35,0,0,1,0-1.9l10.418-10.464A1.334,1.334,0,0,1,707.944,363.237Z" transform="translate(-680.625 -354.906)"/>
</svg>
