<svg xmlns="http://www.w3.org/2000/svg" width="38.563" height="38.063" viewBox="0 0 38.563 38.063">
  <defs>
    <style>
      .cls-1 {
        fill: #fed136;
        fill-rule: evenodd;
      }
    </style>
  </defs>
  <path id="Icon-Basket" class="cls-1" d="M353.508,368.331h33.04l-1.271,22.027h-30.5Zm0.689-6.883H385.86a3.442,3.442,0,1,1,0,6.883H354.2A3.442,3.442,0,1,1,354.2,361.448Zm-2.065,6.883h35.793v1.376H352.132v-1.376Zm17.9,6.883a1.376,1.376,0,0,1,1.377,1.377v8.26a1.377,1.377,0,1,1-2.753,0v-8.26A1.376,1.376,0,0,1,370.028,375.214Zm8.26,0a1.377,1.377,0,0,1,1.377,1.377v8.26a1.377,1.377,0,0,1-2.754,0v-8.26A1.377,1.377,0,0,1,378.288,375.214Zm-16.52,0a1.377,1.377,0,0,1,1.377,1.377v8.26a1.377,1.377,0,1,1-2.753,0v-8.26A1.376,1.376,0,0,1,361.768,375.214Zm12.046-22.573a2.753,2.753,0,0,1,3.761,1.007l4.13,7.154a2.753,2.753,0,1,1-4.769,2.753l-4.13-7.153A2.754,2.754,0,0,1,373.814,352.641Zm-7.572,0a2.753,2.753,0,0,0-3.761,1.007l-4.13,7.154a2.753,2.753,0,0,0,4.769,2.753l4.13-7.153A2.754,2.754,0,0,0,366.242,352.641Z" transform="translate(-350.75 -352.281)"/>
</svg>
